<?xml version="1.0" standalone="no"?>
<!DOCTYPE svg PUBLIC "-//W3C//DTD SVG 20010904//EN"
 "http://www.w3.org/TR/2001/REC-SVG-20010904/DTD/svg10.dtd">
<svg version="1.0" xmlns="http://www.w3.org/2000/svg"
 width="1215.000000pt" height="1215.000000pt" viewBox="0 0 1215.000000 1215.000000"
 preserveAspectRatio="xMidYMid meet">
<metadata>
Created by potrace 1.14, written by Peter Selinger 2001-2017
</metadata>
<g transform="translate(0.000000,1215.000000) scale(0.100000,-0.100000)"
fill="#000000" stroke="none">
<path d="M5787 12144 c-1 -1 -54 -5 -117 -9 -63 -3 -128 -8 -145 -10 -16 -2
-61 -7 -100 -10 -60 -5 -145 -16 -305 -40 -19 -3 -44 -14 -55 -25 -12 -11 -25
-17 -29 -13 -4 5 -6 3 -4 -2 1 -6 -8 -22 -21 -37 -22 -25 -81 -46 -150 -53
-88 -10 -572 -146 -771 -217 -163 -58 -261 -97 -445 -177 -94 -40 -412 -200
-493 -248 -41 -24 -75 -43 -77 -43 -7 0 -251 -154 -355 -223 -58 -39 -157
-109 -220 -156 -137 -103 -135 -101 -165 -107 -14 -2 -37 -6 -52 -9 -89 -15
-96 -20 -268 -174 -97 -88 -394 -389 -470 -476 -39 -44 -73 -82 -76 -85 -5 -4
-173 -213 -202 -250 -75 -97 -128 -173 -123 -177 3 -4 6 -1 6 5 0 7 9 12 19
12 11 0 21 4 23 8 3 8 98 64 98 58 0 -3 -12 -18 -49 -62 -5 -6 -20 -28 -34
-50 -15 -21 -47 -68 -73 -104 -25 -36 -55 -80 -66 -97 -11 -18 -25 -30 -31
-26 -6 3 -7 1 -3 -5 4 -7 -8 -36 -27 -64 -183 -282 -379 -663 -509 -993 -62
-157 -70 -176 -74 -190 -2 -5 -21 -62 -43 -125 -57 -165 -138 -449 -162 -569
-5 -23 -13 -59 -18 -80 -5 -20 -12 -53 -15 -75 -4 -21 -8 -41 -10 -45 -2 -3
-7 -28 -10 -56 -4 -27 -9 -57 -11 -65 -2 -8 -6 -31 -9 -50 -3 -19 -8 -46 -10
-60 -4 -21 -16 -106 -31 -225 -9 -71 -17 -156 -30 -340 -6 -72 -6 -683 -1
-740 2 -22 7 -78 10 -125 4 -47 8 -101 11 -120 2 -19 7 -55 10 -80 11 -103 17
-141 36 -263 29 -191 72 -391 134 -627 28 -106 48 -172 77 -257 19 -56 31
-100 27 -98 -4 3 -15 26 -24 53 -23 67 -96 294 -100 312 -10 46 -54 183 -54
170 -2 -31 120 -439 166 -560 14 -36 34 -90 45 -120 11 -30 24 -64 29 -75 4
-11 20 -49 35 -85 14 -36 39 -93 55 -128 16 -35 29 -65 29 -67 0 -1 29 -63 65
-136 227 -469 472 -844 829 -1274 137 -165 161 -191 396 -425 348 -348 668
-601 1090 -862 747 -462 1626 -765 2480 -854 30 -3 65 -7 78 -9 13 -2 71 -7
130 -11 59 -3 123 -8 142 -10 50 -5 561 -4 650 1 87 5 222 15 265 20 16 2 59
6 95 10 68 7 86 9 160 20 84 12 105 16 160 25 30 5 71 12 90 15 322 52 950
237 1205 355 11 5 48 20 82 34 34 14 115 51 180 82 65 31 127 60 138 65 107
48 447 245 635 369 425 280 903 700 1212 1065 18 21 42 48 53 59 18 19 141
173 235 295 82 106 275 396 357 536 115 197 208 373 275 520 69 152 84 185
112 255 15 36 31 74 35 85 103 249 239 708 296 995 17 84 42 228 50 285 3 22
8 51 10 65 3 14 7 48 10 75 3 28 8 61 10 75 2 14 7 57 11 95 3 39 8 84 10 100
8 67 18 341 18 520 0 186 -11 512 -18 524 -2 3 -6 45 -10 92 -4 47 -8 95 -10
105 -5 26 -15 100 -21 154 -3 25 -16 108 -30 185 -13 77 -26 154 -29 170 -28
175 -138 595 -170 652 -8 15 -36 87 -62 158 -90 253 -281 679 -386 860 -36 62
-111 193 -128 223 -30 52 -235 364 -261 396 -5 6 -57 74 -115 151 -99 129
-213 267 -323 390 -120 133 -410 414 -537 520 -32 27 -61 52 -64 55 -3 3 -43
36 -90 74 -47 37 -92 73 -100 79 -8 7 -55 42 -105 78 -751 547 -1574 903
-2475 1069 -85 16 -177 31 -205 34 -27 4 -63 8 -80 11 -52 8 -98 14 -165 20
-36 4 -81 9 -100 11 -19 2 -96 7 -170 10 -74 4 -137 10 -138 15 -2 5 -9 6 -15
2 -14 -8 -107 -10 -107 -2 0 4 14 12 30 19 17 7 30 16 30 21 0 4 9 11 20 14
53 17 -1 22 -241 21 -143 0 -261 -1 -262 -2z m-5377 -8119 c0 -5 -5 -3 -10 5
-5 8 -10 20 -10 25 0 6 5 3 10 -5 5 -8 10 -19 10 -25z m24 -61 c3 -8 2 -12 -4
-9 -6 3 -10 10 -10 16 0 14 7 11 14 -7z"/>
<path d="M172 4740 c0 -14 2 -19 5 -12 2 6 2 18 0 25 -3 6 -5 1 -5 -13z"/>
<path d="M181 4700 c0 -8 4 -24 9 -35 5 -13 9 -14 9 -5 0 8 -4 24 -9 35 -5 13
-9 14 -9 5z"/>
</g>
</svg>
